#!OML:ASF F:\VICON\USERDATA\INSTALL\rory3\rory3.ASF
:FULLY-SPECIFIED
:DEGREES
1
root 1.59382 17.8144 -15.9655 4.89991 -5.26973 0.867702
lowerback 6.04766 -0.852827 -3.00777
upperback -0.0131495 -1.28242 1.93249
thorax -3.29629 -0.574733 3.80457
lowerneck -15.7896 -2.45353 -9.10985
upperneck 27.4064 -1.7569 2.83596
head 11.7051 -1.39514 2.34558
rclavicle -1.93815e-014 2.06736e-014
rhumerus -35.3708 -8.7434 -80.4606
rradius 32.9698
rwrist 3.7101
rhand -12.2197 16.9335
rfingers 7.12502
rthumb 13.8452 -12.5856
lclavicle -1.93815e-014 2.06736e-014
lhumerus -32.2329 11.1095 84.4884
lradius 29.9438
lwrist -6.75333
lhand -14.5363 33.0768
lfingers 7.12502
lthumb 11.612 62.735
rfemur -13.3054 4.97241 18.4975
rtibia 24.1139
rfoot -10.5456 -7.68838
rtoes 3.89475
lfemur -12.1148 1.19639 -24.7267
ltibia 20.9727
lfoot -11.3955 3.0133
ltoes 1.068
2
root 1.58012 17.8257 -15.9692 4.9937 -5.1693 0.884298
lowerback 6.10584 -0.807019 -3.06373
upperback -0.0291696 -1.22512 1.97968
thorax -3.3485 -0.543534 3.8823
lowerneck -15.9704 -2.40465 -9.12194
upperneck 27.5283 -1.64763 2.78588
head 11.7816 -1.35515 2.34633
rclavicle -5.06901e-015 -2.78299e-015
rhumerus -35.4417 -8.57856 -80.3637
rradius 32.9722
rwrist 3.52137
rhand -12.2845 17.0433
rfingers 7.12502
rthumb 13.7828 -12.4801
lclavicle -5.06901e-015 -2.78299e-015
lhumerus -32.1938 11.068 84.507
lradius 30.1208
lwrist -6.70432
lhand -14.0535 33.2865
lfingers 7.12502
lthumb 12.0775 62.918
rfemur -13.0557 5.22328 18.5453
rtibia 23.5706
rfoot -10.4883 -8.19358
rtoes 3.79791
lfemur -12.2565 1.0989 -24.6746
ltibia 21.16
lfoot -11.5723 2.96184
ltoes 1.7102
3
root 1.56838 17.8284 -15.9778 5.11602 -5.09879 0.877892
lowerback 6.17337 -0.779461 -3.01371
upperback -0.167724 -1.18642 1.98263
thorax -3.53456 -0.518825 3.85771
lowerneck -15.8026 -2.28969 -9.14306
upperneck 27.6506 -1.47934 2.73574
head 11.7837 -1.29197 2.35821
rclavicle 3.36443e-014 1.66979e-014
rhumerus -35.7782 -8.41247 -80.3521
rradius 33.0772
rwrist 3.43481
rhand -12.5168 16.9276
rfingers 7.12502
rthumb 13.559 -12.6109
lclavicle 3.36443e-014 1.66979e-014
lhumerus -32.3879 10.9739 84.419
lradius 30.093
lwrist -5.96387
lhand -15.5958 31.6906
lfingers 7.12502
lthumb 10.5901 61.4038
rfemur -12.9325 5.40913 18.5946
rtibia 23.0716
rfoot -10.2412 -8.41708
rtoes 3.24931
lfemur -12.5746 0.927134 -24.6173
ltibia 21.4549
lfoot -11.6508 3.04317
ltoes 1.91674
4
root 1.55858 17.8399 -15.9855 5.19351 -5.03785 0.713455
lowerback 6.11403 -0.723723 -2.72777
upperback -0.15707 -1.09065 1.96505
thorax -3.50391 -0.477229 3.66757
lowerneck -15.698 -2.22942 -9.11584
upperneck 27.6551 -1.41977 2.7662
head 11.7592 -1.25859 2.37425
rclavicle 7.10655e-015 1.43125e-014
rhumerus -35.8405 -8.70337 -80.3019
rradius 32.9648
rwrist 3.62684
rhand -12.7341 17.083
rfingers 7.12502
rthumb 13.3495 -12.4694
lclavicle 7.10655e-015 1.43125e-014
lhumerus -32.2909 10.8469 84.3472
lradius 29.9488
lwrist -5.24679
lhand -17.0745 30.4741
lfingers 7.12502
lthumb 9.16343 60.255
rfemur -12.8204 5.66742 18.8011
rtibia 22.7247
rfoot -9.98566 -8.63139
rtoes 3.17543
lfemur -12.6516 0.687998 -24.3885
ltibia 21.5897
lfoot -11.7017 3.16532
ltoes 2.53473
5
root 1.5516 17.8409 -15.9904 5.25061 -5.02991 0.608346
lowerback 6.02902 -0.660813 -2.47763
upperback -0.0648265 -0.988722 1.92632
thorax -3.37358 -0.434968 3.47366
lowerneck -15.7453 -2.21683 -9.0514
upperneck 27.6043 -1.41993 2.7874
head 11.7477 -1.24708 2.3706
rclavicle 7.00716e-015 -6.75868e-015
rhumerus -35.5435 -9.0391 -80.2305
rradius 32.5117
rwrist 3.80554
rhand -12.8881 17.3138
rfingers 7.12502
rthumb 13.201 -12.2482
lclavicle 7.00716e-015 -6.75868e-015
lhumerus -32.0696 10.7982 84.2803
lradius 29.9836
lwrist -4.97622
lhand -17.5158 30.4743
lfingers 7.12502
lthumb 8.73759 60.2735
rfemur -12.7276 5.85085 18.9189
rtibia 22.4489
rfoot -9.76724 -8.73022
rtoes 2.61489
lfemur -12.7483 0.344473 -24.2351
ltibia 21.7039
lfoot -11.5965 3.47905
ltoes 3.09105
6
root 1.54681 17.8303 -15.993 5.24551 -5.08427 0.616231
lowerback 6.14965 -0.610901 -2.39437
upperback -0.108058 -0.918173 1.92713
thorax -3.49291 -0.398491 3.42434
lowerneck -15.5751 -2.16986 -9.00288
upperneck 27.5308 -1.35141 2.67687
head 11.6791 -1.22391 2.33015
rclavicle 1.95306e-014 1.51076e-014
rhumerus -35.4582 -9.23076 -79.9892
rradius 32.0664
rwrist 4.16206
rhand -12.5372 16.7882
rfingers 7.12502
rthumb 13.5393 -12.7517
lclavicle 1.95306e-014 1.51076e-014
lhumerus -32.1547 11.0364 84.1692
lradius 30.1102
lwrist -4.91292
lhand -17.7521 30.6412
lfingers 7.12502
lthumb 8.50957 60.4497
rfemur -12.632 5.9587 18.8942
rtibia 22.2087
rfoot -9.6717 -8.65102
rtoes 2.52226
lfemur -12.8429 0.0269724 -24.2243
ltibia 21.7757
lfoot -11.4315 3.8829
ltoes 2.98482
7
root 1.54127 17.8405 -15.9924 5.29451 -5.11167 0.628237
lowerback 6.26135 -0.57271 -2.30357
upperback -0.238226 -0.86217 1.92405
thorax -3.69632 -0.36694 3.36877
lowerneck -15.2736 -2.0987 -9.01803
upperneck 27.4538 -1.26666 2.64123
head 11.5826 -1.19108 2.33102
rclavicle -6.55989e-015 1.98785e-015
rhumerus -35.7559 -9.32986 -79.7242
rradius 32.165
rwrist 4.56797
rhand -11.7673 15.8444
rfingers 7.12502
rthumb 14.2812 -13.6445
lclavicle -6.55989e-015 1.98785e-015
lhumerus -32.4347 11.4035 83.9143
lradius 30.5088
lwrist -5.9369
lhand -16.1766 32.2518
lfingers 7.12502
lthumb 10.0298 61.9928
rfemur -12.6649 5.91952 18.8818
rtibia 22.1473
rfoot -9.67694 -8.50737
rtoes 2.64031
lfemur -12.7749 -0.19681 -24.2209
ltibia 21.6853
lfoot -11.4239 4.13264
ltoes 3.71054
8
root 1.53431 17.85 -15.9953 5.38587 -5.10151 0.621881
lowerback 6.22728 -0.515571 -2.1072
upperback -0.255102 -0.77355 1.85083
thorax -3.7046 -0.32693 3.17305
lowerneck -15.2163 -2.07848 -8.99268
upperneck 27.3929 -1.2641 2.69001
head 11.5467 -1.1794 2.34462
rclavicle -3.47873e-015 2.38542e-015
rhumerus -35.9677 -9.35053 -79.7153
rradius 32.5076
rwrist 4.58978
rhand -11.5609 15.8726
rfingers 7.12502
rthumb 14.4801 -13.6021
lclavicle -3.47873e-015 2.38542e-015
lhumerus -32.5361 11.5718 83.6655
lradius 31.0579
lwrist -6.92788
lhand -14.153 34.5575
lfingers 7.12502
lthumb 11.9816 64.1945
rfemur -12.8015 5.81161 18.8994
rtibia 22.1608
rfoot -9.70927 -8.35761
rtoes 3.08919
lfemur -12.7722 -0.326408 -24.198
ltibia 21.5409
lfoot -11.3372 4.27128
ltoes 3.99336
9
root 1.52633 17.8402 -16.0022 5.46747 -5.19894 0.438762
lowerback 6.2408 -0.462655 -1.8588
upperback -0.231755 -0.682734 1.90911
thorax -3.69638 -0.286406 3.08493
lowerneck -15.3816 -2.04467 -8.97353
upperneck 27.4161 -1.18371 2.62615
head 11.5833 -1.14876 2.32934
rclavicle -2.37051e-014 2.66371e-014
rhumerus -35.8857 -9.31014 -79.6707
rradius 32.4074
rwrist 4.64101
rhand -11.7107 16.4352
rfingers 7.12502
rthumb 14.3357 -13.0499
lclavicle -2.37051e-014 2.66371e-014
lhumerus -32.5642 11.8144 83.5567
lradius 31.3938
lwrist -6.89746
lhand -13.6899 35.1557
lfingers 7.12502
lthumb 12.4281 64.7662
rfemur -12.9203 5.75134 19.1198
rtibia 22.1146
rfoot -9.72145 -8.17694
rtoes 3.19339
lfemur -12.98 -0.462946 -23.9756
ltibia 21.4867
lfoot -11.0638 4.57453
ltoes 3.02272
10
root 1.51761 17.8335 -16.0112 5.53549 -5.40897 0.295759
lowerback 6.2175 -0.367919 -1.79399
upperback -0.100153 -0.547733 2.03479
thorax -3.55536 -0.223021 3.16481
lowerneck -15.7244 -2.08583 -9.09328
upperneck 27.4429 -1.15667 2.58065
head 11.6635 -1.15364 2.33662
rclavicle 1.30204e-014 -3.65764e-014
rhumerus -35.4543 -9.53165 -79.4106
rradius 31.9815
rwrist 5.15635
rhand -11.6123 15.951
rfingers 7.12502
rthumb 14.4306 -13.5273
lclavicle 1.30204e-014 -3.65764e-014
lhumerus -32.2852 12.1142 83.623
lradius 31.4427
lwrist -6.65456
lhand -13.8699 34.5975
lfingers 7.12502
lthumb 12.2546 64.2184
rfemur -13.0327 5.82464 19.284
rtibia 22.1251
rfoot -9.68546 -8.00147
rtoes 3.26364
lfemur -13.1373 -0.573861 -23.7924
ltibia 21.4209
lfoot -10.8645 4.90314
ltoes 2.48411
